<?xml version="1.0" encoding="UTF-8" standalone="no"?>
<!-- Created with Inkscape (http://www.inkscape.org/) -->

<svg
   xmlns:dc="http://purl.org/dc/elements/1.1/"
   xmlns:cc="http://creativecommons.org/ns#"
   xmlns:rdf="http://www.w3.org/1999/02/22-rdf-syntax-ns#"
   xmlns:svg="http://www.w3.org/2000/svg"
   xmlns="http://www.w3.org/2000/svg"
   xmlns:sodipodi="http://sodipodi.sourceforge.net/DTD/sodipodi-0.dtd"
   xmlns:inkscape="http://www.inkscape.org/namespaces/inkscape"
   width="90mm"
   height="1180mm"
   viewBox="0 0 90 1180"
   version="1.1"
   id="svg8"
   inkscape:version="0.92.0 r15299"
   sodipodi:docname="vector cut.svg">
  <defs
     id="defs2" />
  <sodipodi:namedview
     id="base"
     pagecolor="#ffffff"
     bordercolor="#666666"
     borderopacity="1.0"
     inkscape:pageopacity="0.0"
     inkscape:pageshadow="2"
     inkscape:zoom="0.088388348"
     inkscape:cx="-501.11807"
     inkscape:cy="2261.1699"
     inkscape:document-units="mm"
     inkscape:current-layer="layer1"
     showgrid="false"
     fit-margin-top="0"
     fit-margin-left="0"
     fit-margin-right="0"
     fit-margin-bottom="0"
     inkscape:snap-bbox="false"
     showguides="true"
     inkscape:guide-bbox="true"
     inkscape:snap-global="true"
     inkscape:window-width="1360"
     inkscape:window-height="705"
     inkscape:window-x="-8"
     inkscape:window-y="-8"
     inkscape:window-maximized="1">
    <sodipodi:guide
       position="-508.44687,800.70615"
       orientation="0,1"
       id="guide4579"
       inkscape:locked="false" />
    <sodipodi:guide
       position="-517.80353,793.3719"
       orientation="0,1"
       id="guide4583"
       inkscape:locked="false" />
    <sodipodi:guide
       position="-519.90627,807.77296"
       orientation="0,1"
       id="guide4591"
       inkscape:locked="false" />
  </sodipodi:namedview>
  <metadata
     id="metadata5">
    <rdf:RDF>
      <cc:Work
         rdf:about="">
        <dc:format>image/svg+xml</dc:format>
        <dc:type
           rdf:resource="http://purl.org/dc/dcmitype/StillImage" />
        <dc:title></dc:title>
      </cc:Work>
    </rdf:RDF>
  </metadata>
  <g
     inkscape:label="Layer 1"
     inkscape:groupmode="layer"
     id="layer1"
     transform="translate(-473.32181,883.64435)">
    <rect
       style="opacity:1;vector-effect:none;fill:#f2f2f2;fill-opacity:1;stroke:none;stroke-width:1.20000005;stroke-linecap:round;stroke-linejoin:round;stroke-miterlimit:4;stroke-dasharray:none;stroke-dashoffset:0;stroke-opacity:1;paint-order:fill markers stroke"
       id="rect4485"
       width="1180"
       height="90"
       x="-296.35565"
       y="473.32181"
       transform="rotate(-90)" />
    <g
       id="g4500"
       transform="matrix(0.31609337,0,0,0.31609337,266.43667,77.941246)"
       style="stroke-width:3.16362214">
      <g
         transform="matrix(0.26964,0.08332858,-0.08332858,0.26964,781.51873,-274.44521)"
         id="g4142"
         style="stroke-width:3.16362214">
        <path
           style="opacity:1;fill:#ea282e;fill-opacity:1;stroke:none;stroke-width:2.01774335;stroke-linecap:round;stroke-linejoin:round;stroke-miterlimit:3.70000005;stroke-dasharray:48.42583883, 2.0177433;stroke-dashoffset:0"
           d="m 304.52258,73.598596 5.558,17.84113 17.8309,-5.56113 17.8309,-5.56112 17.8309,-5.561 17.8308,-5.56113 -5.558,-17.84125 -17.831,5.56113 -17.8306,5.56112 -17.8309,5.56113 z m -481.4335,150.916884 5.558,17.841 5.5573,17.83912 5.5579,17.841 5.5578,17.84088 5.558,17.84125 17.8309,-5.56113 -5.5572,-17.839 17.8306,-5.56112 17.8309,-5.56113 17.830996,-5.56112 -5.5579,-17.841 -17.830996,5.56112 -17.8309,5.56113 -17.8307,5.561 v 0 l -5.5579,-17.841 -5.5574,-17.839 17.8309,-5.56113 17.8307,-5.56112 17.8309,-5.56113 -5.5579,-17.841 -17.8308,5.561 -17.8309,5.56113 -17.8309,5.56112 -17.8306,5.56113 z m 76.8814,-4.40338 5.557796,17.84088 5.5581,17.84125 17.8306,-5.56113 -5.5579,-17.84125 -5.558,-17.84087 z m 29.915396,-28.9045 5.558,17.84088 5.5572,17.83912 5.5579,17.841 5.558,17.841 5.5579,17.84125 17.8309,-5.56112 -5.558,-17.84125 -5.5579,-17.841 -5.5579,-17.84088 -5.5574,-17.83925 -5.5578,-17.84087 z m 36.0281,-11.2365 5.5579,17.841 17.8309,-5.56112 -5.558,-17.841 z m 23.3888,12.27988 5.5577996,17.841 17.8308004,-5.56113 -5.5579004,-17.841 z m 23.3886,12.27987 5.5579,17.84113 17.831,-5.56113 -5.5579,-17.84112 z m 17.831,-5.56112 17.8309,-5.56113 -5.558,-17.841 -17.8309,5.56113 z m 12.2729,-23.40213 17.8307,-5.561 -5.558,-17.84112 -17.8306,5.56112 z m -6.715,41.24325 5.558,17.84113 17.8307,-5.56113 5.5573,17.839 17.8308,-5.56112 -5.5578,-17.84113 -17.8309,5.56113 -5.5573,-17.839 z m -17.831,5.56113 -17.83070041,5.56112 5.55730001,17.83888 -17.8308996,5.56112 5.5578996,17.84125 17.8309004,-5.56112 -5.5573004,-17.839 17.8308004,-5.56113 z m 54.9532,-75.86225 5.558,17.841 5.5573,17.83912 5.5578,17.84088 5.558,17.84112 5.557904,17.84113 17.831,-5.56125 17.8309,-5.56088 17.8307,-5.56112 17.8289,-5.56063 17.8308,-5.56112 -5.558,-17.841 -17.8308,5.56112 -17.8289,5.56038 -17.8308,5.56112 -17.8307,5.56113 -5.558,-17.84113 17.8308,-5.561 17.8309,-5.56112 17.8288,-5.5605 17.8308,-5.56113 -5.5579,-17.841 -17.8307,5.56113 -17.829,5.5605 -17.8307,5.56112 -17.8308,5.561 -5.557404,-17.839 17.830704,-5.56112 17.8309,-5.56113 17.8289,-5.5605 17.8309,-5.561 -5.558,-17.84112 -17.8309,5.56112 -17.8288,5.56063 -17.8308,5.56087 -17.830804,5.56113 z m 105.902304,-33.029 5.558,17.841 5.5572,17.83912 5.5579,17.841 5.558,17.84113 5.5579,17.841 17.8308,-5.56113 17.8309,-5.56112 17.8308,-5.56113 17.8288,-5.56037 17.8309,-5.56113 -5.558,-17.84125 -17.8307,5.56113 -17.8289,5.56062 -17.8309,5.56113 -17.831,5.56112 -5.5577,-17.84112 -5.5579,-17.841 -5.5574,-17.83913 -5.558,-17.841 z m 113.1727,-16.390754 5.5579,17.841004 17.8309,-5.56113 -5.5579,-17.841004 z m 23.3888,12.279874 5.558,17.84113 17.831,-5.56113 17.8306,-5.56112 17.8309,-5.56113 -5.5579,-17.841004 -17.8309,5.561 -17.8307,5.561004 z m 59.2397,1.76525 5.558,17.84113 17.8308,-5.56125 -5.5578,-17.841 z m 5.558,17.84113 -17.8309,5.561 -17.8308,5.561 -17.8309,5.56125 -17.8309,5.56112 5.558,17.84113 17.8309,-5.56113 17.831,-5.56112 17.8306,-5.56113 17.8309,-5.56112 z"
           id="rect6763"
           inkscape:connector-curvature="0"
           inkscape:export-xdpi="90"
           inkscape:export-ydpi="90" />
        <path
           inkscape:connector-curvature="0"
           id="path6891"
           d="m 260.74828,373.2811 c -4.22376,-1.89934 -3.50653,-8.3159 -5.5936,-12.16868 -8.03501,-24.2501 -14.69758,-49.04038 -24.20282,-72.73568 -4.44676,9.42194 -2.25929,23.32884 -5.24334,34.36903 -1.30282,10.46787 -7.23322,25.5914 -20.41464,22.43883 -13.75471,-3.46903 -16.04548,-19.28405 -19.88742,-30.95203 -4.96268,-16.82189 -2.6155,-34.16399 -2.70577,-51.32675 1.75665,-4.93554 0.7629,-23.02306 -5.41704,-10.23757 -6.93624,12.80703 -14.19263,25.78078 -15.9822,40.46205 -3.63615,12.43255 -4.63613,26.28091 -6.70487,38.29293 -5.14698,7.00434 -13.96803,-8.84498 -12.37909,-14.91688 -2.41429,-14.54259 -0.034,-29.8899 -2.46714,-44.54539 -6.28934,-3.46006 -8.29212,17.08713 -10.40197,23.02543 -3.45403,13.29008 -2.1286,27.18407 -5.07702,40.39406 -3.50998,16.13495 -21.20697,4.83631 -19.00833,-7.83306 -3.2451,-11.62289 -3.34365,14.77851 -6.138788,19.11061 -0.969629,15.42519 -24.251579,21.21812 -24.964055,2.67868 -1.540437,-6.33119 -3.893902,-16.23073 -8.9778,-5.64345 -6.359197,7.49827 -16.635347,4.15296 -21.851516,1.7176 -6.188677,12.47172 -9.350003,27.88997 -22.052395,35.69377 -11.6193203,11.13816 -27.081459,-2.68087 -28.2900496,-15.499 -3.9021794,-11.53945 -6.2644864,-23.67805 -6.1718504,-35.68887 0.736376,-8.88593 1.151553,-20.21767 10.7311517,-25.13777 7.2780549,-11.49364 32.0429713,-2.86414 21.1588353,8.34911 -1.577248,-15.72004 -19.20359047,-10.14991 -17.6544374,3.555 -0.30438809,19.62042 -0.32696148,40.67641 9.8982254,58.12809 9.79476,12.99804 21.077034,-8.59662 24.279915,-17.26296 6.516995,-9.99603 7.490642,-20.85498 4.79311,-31.99797 -0.16632,-11.19261 -0.767749,-24.15585 8.646481,-32.31703 5.963321,-3.15458 14.538043,-11.56284 21.219503,-6.15362 6.82704,4.72881 1.150804,9.59499 -2.91755,2.20107 -12.262184,-5.68814 -18.299901,11.11738 -16.505034,20.9232 0.04376,10.24769 -3.429026,31.4093 11.973205,30.64257 10.158141,-7.95999 6.332504,-22.35681 7.118095,-33.60982 -3.476935,-10.53814 11.215832,-12.02556 8.8984,-0.31287 3.740902,15.17317 3.538706,31.30483 9.156087,45.98589 9.587023,0.2494 10.313102,-14.92927 11.956413,-22.32739 0.961014,-10.84785 3.998224,-21.93899 0.285,-33.079 -1.99281,-9.28529 -0.97023,-18.72839 -3.8996,-27.79225 13.319674,-3.48753 14.857014,15.41839 16.953194,24.57004 2.18342,4.12376 2.80113,25.83627 7.14941,18.81155 3.68832,-15.80095 4.49955,-33.52403 15.65577,-46.16073 15.09615,-10.10794 18.62744,11.83882 18.63573,22.39201 2.64227,14.88012 5.01338,-12.0482 8.2464,-15.93837 2.87756,-11.18625 7.53008,-22.53588 15.53379,-31.05437 16.05529,-9.78567 23.4015,9.91388 20.75836,23.01939 -3.41228,17.74178 -0.1869,35.7084 2.37915,53.33053 -0.18249,9.05324 10.10637,32.24631 16.0174,13.86595 2.95678,-9.91008 3.33526,-19.43207 6.34446,-29.50577 1.30712,-12.93745 7.12138,-25.9843 0.33997,-38.38719 -3.4922,-7.72134 -13.20554,-29.51896 3.99704,-20.22486 7.15246,-0.29508 16.22227,18.31054 17.45985,5.63218 1.26853,-8.86431 4.62058,-19.8661 12.94298,-25.13236 13.85978,-7.14345 20.57007,11.42433 23.83948,21.47113 2.97509,6.6491 5.636,29.05862 13.41612,12.80649 3.70885,-3.90191 19.45475,-23.56301 11.64931,-10.27684 -5.61858,11.61062 -20.15718,20.65303 -16.68962,35.14635 -0.1252,9.78353 -5.05115,29.57068 -15.70239,28.98212 -12.0498,-6.80263 2.51559,-21.14885 -1.7572,-31.19913 -2.45208,-17.15268 -7.40936,-34.05617 -12.11806,-50.77141 -10.64683,2.093 -8.19011,20.98491 -11.42575,30.19164 -2.67662,12.81769 2.79935,25.48863 3.75558,38.26205 2.02579,13.46941 5.042,26.35196 9.40423,39.2532 3.47113,11.23066 7.25136,24.634 0.6704,35.11002 l -2.6714,-0.62225 z"
           style="opacity:1;fill:#000000;fill-opacity:1;stroke:none;stroke-width:2.01774335;stroke-linecap:round;stroke-linejoin:round;stroke-miterlimit:3.70000005;stroke-dasharray:48.42583883, 2.0177433;stroke-dashoffset:0" />
      </g>
    </g>
    <rect
       style="opacity:1;vector-effect:none;fill:#000000;fill-opacity:1;stroke:none;stroke-width:1.20000005;stroke-linecap:round;stroke-linejoin:round;stroke-miterlimit:4;stroke-dasharray:none;stroke-dashoffset:0;stroke-opacity:1;paint-order:fill markers stroke"
       id="rect4502"
       width="260"
       height="90"
       x="-296.35565"
       y="473.32178"
       transform="rotate(-90)" />
    <g
       id="g4718"
       transform="translate(-7.93635)">
      <path
         inkscape:connector-curvature="0"
         id="path4636"
         d="m 489.35244,-749.48354 c -0.0361,0.0141 -0.0219,0.19607 0.0198,0.51461 0.23323,1.77688 2.39041,7.38131 4.43697,11.52783 3.81749,7.73464 9.19894,14.75859 14.65031,19.1202 0.99693,0.79764 1.95247,1.45061 2.12309,1.45061 0.36328,0 5.23619,-2.47933 5.40281,-2.74895 0.0623,-0.10067 -0.11979,-0.30584 -0.40461,-0.45556 -0.28476,-0.14972 -1.51326,-0.91957 -2.72967,-1.71101 -11.07565,-7.20618 -18.34332,-15.56594 -22.79896,-26.22411 -0.44069,-1.05397 -0.63977,-1.49705 -0.69982,-1.47362 z m 10.27794,13.35692 c -0.0278,-0.005 -0.0459,-0.004 -0.0535,0.004 -0.15824,0.15825 4.49758,4.33869 7.64896,6.86835 4.9441,3.96851 10.20221,7.23288 12.41969,7.71045 0.52187,0.11245 1.26442,-0.0379 2.71538,-0.55003 4.16913,-1.47152 9.68735,-2.33044 15.20407,-2.36672 4.12337,-0.0271 4.87349,0.19694 5.62161,1.68119 0.56601,1.12307 0.19879,1.34945 -1.1324,0.69858 -1.23139,-0.6021 -4.36606,-1.59002 -6.94541,0.20945 1.49379,-0.25941 2.31653,-0.4672 2.94908,-0.46115 1.06424,0.01 1.43942,0.22109 1.43942,0.80921 0,0.40859 0.19035,0.58698 0.85207,0.79678 0.46883,0.14864 1.06622,0.40403 1.32757,0.56744 0.26131,0.1634 0.9008,0.41125 1.4208,0.55127 1.12278,0.30234 1.18993,0.65291 0.25727,1.34248 -0.81641,0.6036 -0.70144,0.94033 0.32073,0.94033 1.32504,0 4.99924,0.71557 6.11691,1.19146 1.28618,0.54761 2.55915,1.94082 2.94224,3.21943 l 0.15975,1.59789 0.28464,-1.47359 c 0.0948,-0.43153 0.0737,-1.27076 -0.0473,-1.86514 -0.51675,-2.53968 -2.61729,-4.46392 -5.73658,-5.2549 -1.17466,-0.29789 -1.20912,-0.33178 -2.24427,-2.18028 -1.43687,-2.56583 -2.0165,-3.19148 -2.96277,-3.19148 -0.41759,-5.6e-4 -2.44698,-0.10463 -4.50967,-0.23182 -14.09806,-0.8692 -27.05447,-4.35905 -36.4418,-9.81554 -0.74678,-0.43408 -1.41208,-0.76212 -1.60661,-0.79741 z"
         style="opacity:1;vector-effect:none;fill:#b33a73;fill-opacity:1;stroke:none;stroke-width:1.20000005;stroke-linecap:round;stroke-linejoin:round;stroke-miterlimit:4;stroke-dasharray:none;stroke-dashoffset:0;stroke-opacity:1;paint-order:fill markers stroke" />
      <path
         inkscape:connector-curvature="0"
         id="path4632"
         d="m 536.45936,-710.62036 c -2.9573,-0.0182 -5.93503,0.98939 -8.51349,3.94538 l 0.0398,3.31452 c 1.4568,-4.384 5.21507,-7.94515 16.86537,-5.05166 -2.49746,-1.14639 -5.43436,-2.1901 -8.39166,-2.20824 z m 12.87652,3.54078 a 4.5047243,4.8726593 0 0 0 -4.50475,4.87265 4.5047243,4.8726593 0 0 0 4.50475,4.87266 4.5047243,4.8726593 0 0 0 4.5047,-4.87266 4.5047243,4.8726593 0 0 0 -4.5047,-4.87265 z m 14.47627,0.30576 c -1.00072,-0.014 -2.04698,0.39488 -2.51777,1.26853 v 7.67816 h 1.11002 v -7.67816 c -0.0142,-1.16931 2.74241,-1.3827 2.80178,0 v 7.67816 h 0.85148 v -7.67816 c -0.28935,-0.81765 -1.24482,-1.2545 -2.24551,-1.26853 z m -62.66465,0.0553 c -1.34894,0.0296 -2.5847,0.5759 -3.72161,1.59107 v 7.27356 h 1.56247 v -4.50163 h 1.06961 l 0.44751,-0.53202 h -1.51712 v -2.23991 c 0.3324,-0.45079 1.3731,-0.99744 2.17343,-0.98013 0.69142,0.0149 1.23235,0.28899 1.77567,0.98013 v 7.27356 h 1.5631 v -7.27356 c -0.81354,-0.94494 -1.87479,-1.62368 -3.35306,-1.59107 z m 12.35631,0.0435 v 8.82113 h 1.91236 0.33751 5.17158 l 0.91487,-0.79306 h -6.08645 v -8.02807 z m 18.37997,0 c -7.15085,6.59838 1.37888,11.64621 7.55759,7.6502 l -0.27844,-0.39777 c -4.2927,3.64852 -10.93439,-0.5794 -7.35871,-5.6483 z m 17.4521,0.033 a 2.9733168,4.4450585 0 0 1 2.97329,4.44504 2.9733168,4.4450585 0 0 1 -2.97329,4.44509 2.9733168,4.4450585 0 0 1 -2.97334,-4.44509 2.9733168,4.4450585 0 0 1 2.97334,-4.44504 z m -62.87722,0.20758 v 10.00078 l 1.13676,-1.93166 v -3.72785 h 2.6526 l 0.47236,-0.81791 h -3.29588 v -2.61346 h 4.30458 l 0.52583,-0.9099 z m 40.41324,14.80816 c -11.30254,-0.24457 -11.73929,9.38101 -6.88139,11.69439 4.85789,2.31342 9.27191,0.22994 11.09773,-2.70483 -0.25951,2.83164 -1.20851,9.92804 -13.52411,9.70556 l -1.59108,1.82973 c 23.45321,1.85687 23.79166,-20.24583 10.89885,-20.52485 z m -0.53698,1.47175 c 2.60322,0 4.71355,1.88771 4.71355,4.21634 0,2.32863 -2.11033,4.21634 -4.71355,4.21634 -2.60323,0 -4.71356,-1.88771 -4.71356,-4.21634 0,-2.32863 2.11033,-4.21634 4.71356,-4.21634 z"
         style="opacity:1;vector-effect:none;fill:#151515;fill-opacity:1;stroke:none;stroke-width:1.20000005;stroke-linecap:round;stroke-linejoin:round;stroke-miterlimit:4;stroke-dasharray:none;stroke-dashoffset:0;stroke-opacity:1;paint-order:fill markers stroke" />
    </g>
    <path
       style="opacity:1;vector-effect:none;fill:#0c5c8c;fill-opacity:1;stroke:none;stroke-width:0.065;stroke-linecap:round;stroke-linejoin:round;stroke-miterlimit:4;stroke-dasharray:none;stroke-dashoffset:0;stroke-opacity:1;paint-order:fill markers stroke"
       d="m 517.93081,-515.77803 c -11.19711,-0.0231 -22.29032,0.0646 -23.33037,0.28294 -3.88044,0.81418 -5.80037,2.48308 -6.63683,5.76786 -0.57507,2.25819 -0.47934,10.82346 0.14415,12.91317 0.6849,2.29524 2.29711,3.86483 4.85244,4.72452 l 1.92159,0.64647 22.02113,0.0876 c 19.76679,0.0788 22.07319,0.13425 22.5211,0.53951 0.43172,0.39074 0.49918,0.96739 0.49918,4.27494 0,3.10139 -0.0879,3.9476 -0.46429,4.48497 l -0.46356,0.66278 -26.17279,-0.13411 c -14.99274,-0.0765 -26.36205,-0.0264 -26.61698,0.11626 -0.9301,0.52049 -0.16048,3.40148 1.32084,4.94466 1.26429,1.31707 2.78345,2.02521 5.23844,2.44094 2.42974,0.4114 21.11878,0.48378 40.00222,0.15502 10.84505,-0.18884 11.60184,-0.23567 13.17438,-0.81156 1.96926,-0.72122 3.36734,-1.95752 4.18736,-3.70209 0.53398,-1.13606 0.60304,-1.85977 0.68985,-7.20734 0.10785,-6.64464 -0.1113,-8.3276 -1.33866,-10.26291 -0.93422,-1.47308 -2.91231,-2.57925 -5.34774,-2.99129 -1.99406,-0.3373 -14.73038,-0.57738 -30.93918,-0.58213 -12.46203,-0.005 -12.85598,-0.0203 -13.40076,-0.56511 -0.50345,-0.50344 -0.56118,-0.9354 -0.56118,-4.19355 0,-3.43539 0.034,-3.65553 0.62397,-4.06872 0.55279,-0.38718 3.37665,-0.43719 24.8419,-0.43719 h 24.21791 l 0.30151,-0.6612 c 0.23943,-0.52554 0.18573,-0.88407 -0.26122,-1.7534 -1.14734,-2.23133 -3.68594,-3.77316 -7.06779,-4.29119 -1.45812,-0.22337 -12.75953,-0.35676 -23.95665,-0.37982 z"
       id="path4680"
       inkscape:connector-curvature="0" />
    <path
       style="opacity:1;vector-effect:none;fill:#0c5c8c;fill-opacity:1;stroke:none;stroke-width:0.06499999;stroke-linecap:round;stroke-linejoin:round;stroke-miterlimit:4;stroke-dasharray:none;stroke-dashoffset:0;stroke-opacity:1;paint-order:fill markers stroke"
       d="m 513.80204,-431.94453 c -23.42508,-0.008 -25.83155,0.0515 -26.4914,0.64877 -0.68537,0.62024 -0.72554,1.80372 -0.72554,21.24289 v 20.58559 l 6.44922,-0.1093 6.44922,-0.10854 0.10697,-7.77625 c 0.10485,-7.59051 0.12839,-7.78609 0.99218,-8.22817 0.62067,-0.3177 7.16414,-0.48887 21.9196,-0.57365 23.47336,-0.13481 23.54839,-0.14291 25.96353,-2.89361 1.56313,-1.78018 1.69461,-2.71363 1.54642,-10.96677 -0.11445,-6.37599 -0.20116,-7.11279 -0.95499,-8.1305 -1.22884,-1.65902 -3.64985,-2.83889 -6.74222,-3.28585 -1.60444,-0.23189 -13.46679,-0.39989 -28.51299,-0.40461 z m 11.17684,7.32822 c 13.67409,0 12.56172,0.31718 12.7186,5.30431 0.0633,2.01168 -0.0714,3.97451 -0.3023,4.40595 -0.22904,0.42795 -1.08392,0.96321 -1.89989,1.18983 h -7.9e-4 c -0.91544,0.25424 -7.80628,0.41473 -17.99193,0.41473 -15.49026,0 -16.54851,-0.0429 -17.16484,-0.72398 -0.96231,-1.06394 -0.96275,-9.24147 0,-10.0405 0.53395,-0.44315 3.85756,-0.54415 17.82914,-0.54415 2.60382,0 4.85853,-0.006 6.81199,-0.006 z"
       id="path4678"
       inkscape:connector-curvature="0" />
    <path
       style="opacity:1;vector-effect:none;fill:#0c5c8c;fill-opacity:1;stroke:none;stroke-width:0.065;stroke-linecap:round;stroke-linejoin:round;stroke-miterlimit:4;stroke-dasharray:none;stroke-dashoffset:0;stroke-opacity:1;paint-order:fill markers stroke"
       d="m 517.18774,-349.26585 c -0.48403,0.14685 -5.60638,5.51201 -7.6158,7.99485 l -1.16892,1.44411 3.44551,4.31058 c 8.7726,10.97494 9.26763,11.6738 8.83667,12.4791 -0.38918,0.72719 -1.01477,0.76121 -14.25417,0.76121 h -13.8472 l -3.006,3.37807 c -1.65332,1.85825 -3.00602,3.5549 -3.00602,3.77031 0,0.25247 7.12791,0.39223 20.05766,0.39223 23.67634,0 21.4765,-0.44929 26.12787,5.33376 l 3.05178,3.79438 h 7.13133 c 3.92211,0 7.13136,-0.15364 7.13136,-0.34108 0,-0.7834 -9.54345,-14.03636 -16.61604,-23.07455 -3.30749,-4.22672 -15.4121,-19.31659 -16.23624,-20.24063 -0.006,-0.006 -0.0162,-0.007 -0.0318,-0.003 z"
       id="path4674"
       inkscape:connector-curvature="0" />
    <path
       style="opacity:1;vector-effect:none;fill:#0c5c8c;fill-opacity:1;stroke:none;stroke-width:0.065;stroke-linecap:round;stroke-linejoin:round;stroke-miterlimit:4;stroke-dasharray:none;stroke-dashoffset:0;stroke-opacity:1;paint-order:fill markers stroke"
       d="m 505.16926,-263.59302 c -10.03042,0.0236 -12.19399,0.16753 -13.54026,0.58677 -2.3778,0.74058 -4.24327,2.61053 -4.87489,4.88498 -0.57841,2.08308 -0.55838,28.76793 0.0233,30.86791 0.64417,2.32565 1.82812,3.76154 3.88504,4.7129 1.69935,0.78597 2.65399,0.85677 14.1255,1.04179 16.95443,0.27344 38.06111,-0.13169 40.08438,-0.76894 2.62334,-0.82634 4.06995,-2.18421 4.74309,-4.45092 0.33032,-1.11233 0.50403,-2.17869 0.38604,-2.36962 -0.1188,-0.19232 -11.11924,-0.3458 -24.6613,-0.34182 -22.27782,0.004 -24.51131,-0.0545 -25.1783,-0.6581 -0.68116,-0.61644 -0.73173,-1.51051 -0.73173,-12.8899 0,-11.68293 0.0339,-12.24546 0.76737,-12.63801 0.49128,-0.26289 6.31436,-0.41235 16.17266,-0.41235 8.47276,-5.3e-4 19.5759,-0.11865 24.67371,-0.26282 l 9.26917,-0.26198 -0.21546,-1.32862 c -0.441,-2.71752 -2.41899,-4.48461 -5.8795,-5.25469 -0.9935,-0.2211 -12.09548,-0.41083 -26.13482,-0.44574 -5.35276,-0.0135 -9.57048,-0.0188 -12.91395,-0.0105 z"
       id="path4672"
       inkscape:connector-curvature="0" />
    <path
       style="opacity:1;vector-effect:none;fill:#0c5c8c;fill-opacity:1;stroke:none;stroke-width:0.06499999;stroke-linecap:round;stroke-linejoin:round;stroke-miterlimit:4;stroke-dasharray:none;stroke-dashoffset:0;stroke-opacity:1;paint-order:fill markers stroke"
       d="m 487.79366,-179.71953 v 3.86489 c 0,2.12558 0.13394,4.00133 0.29765,4.16794 0.37779,0.38446 60.11653,-0.15629 60.53972,-0.548 0.17263,-0.15986 0.26202,-1.8473 0.19844,-3.75019 l -0.1155,-3.46024 -30.46016,-0.1372 z m 0,14.11308 v 13.8736 c 0,7.63071 0.11879,13.99313 0.26432,14.13867 v -0.004 c 0.34211,0.34278 42.06311,0.34544 52.25728,0.005 l 7.8034,-0.26122 v -3.31065 -3.31066 h -22.64823 c -14.85285,0 -22.91215,-0.14144 -23.41563,-0.41084 -0.70636,-0.37806 -0.76739,-0.884 -0.76739,-6.34067 0,-7.61524 -0.50438,-7.18586 8.39018,-7.13836 3.57104,0.021 9.48408,0.0266 13.14029,0.0171 l 6.64765,-0.0179 v -3.37344 -3.37343 l -6.64765,0.005 c -3.65621,0 -13.03239,-0.11057 -20.83594,-0.24805 z"
       id="path4670"
       inkscape:connector-curvature="0" />
    <path
       style="opacity:1;vector-effect:none;fill:#0c5c8c;fill-opacity:1;stroke:none;stroke-width:0.06499999;stroke-linecap:round;stroke-linejoin:round;stroke-miterlimit:4;stroke-dasharray:none;stroke-dashoffset:0;stroke-opacity:1;paint-order:fill markers stroke"
       d="m 576.30745,-113.82926 c -0.0481,-0.0135 -0.10782,0.0714 -0.17984,0.2488 -1.43451,3.536 -9.52936,8.11371 -33.3592,18.863191 -32.9796,14.87686 -48.40864,24.020344 -60.8211,36.045101 -2.33641,2.263457 -2.65198,3.043951 -1.78981,4.424521 0.46601,0.746165 0.94103,0.788313 8.88008,0.788313 h 8.38786 l 2.92695,-2.630051 c 10.46924,-9.407843 21.00502,-16.691848 44.88099,-31.029117 26.05484,-15.645648 31.30669,-19.873908 31.24383,-25.150408 -0.012,-1.0304 -0.0638,-1.53182 -0.16976,-1.56035 z m -94.56555,17.783373 -0.47361,0.88523 c -0.26043,0.486806 -0.39151,1.098153 -0.29146,1.35882 0.25896,0.674886 7.38946,6.192877 14.36502,11.116389 3.27423,2.311043 6.06444,4.206598 6.20117,4.212154 0.13665,0.006 3.38146,-1.516737 7.20963,-3.383518 l 6.96004,-3.394353 -7.60573,-5.126077 -7.60574,-5.125244 -9.38005,-0.272097 z m 49.43032,21.155303 c -0.89328,0 -11.52614,7.83332 -11.3435,8.356877 0.0657,0.188238 4.40563,3.196273 9.64438,6.684844 l 9.525,6.343015 8.78163,0.02342 c 7.21316,0.01905 8.86711,-0.08005 9.2599,-0.553443 0.78518,-0.94611 0.36084,-1.591587 -2.76185,-4.197429 -6.03771,-5.038328 -22.15476,-16.657122 -23.10556,-16.657122 z"
       id="path4666"
       inkscape:connector-curvature="0" />
    <g
       class="currentLayer"
       id="g13"
       style="fill:#ff2a2a;stroke-width:1.22269773"
       transform="matrix(0.21639309,0,0,0.21639309,490.6366,-635.63847)">
      <title
         id="title9">Layer 1</title>
      <path
         class="cls-1"
         d="M 113.61043,4.4 C 75.390435,42.61 40.210435,81.1 29.390435,132.32 c -5.71,27 -4.36,55.48 1.32,83.08 A 125.6,125.6 0 0 0 0.82043475,319.09 15,15 0 0 0 24.370435,328.88 c 11.13,-8 26,-14.25 43,-18.58 5.15,9 10.4,17.4 15.73,24.94 a 15.19,15.19 0 0 0 12.27,6.39 h 57.659995 a 15,15 0 0 0 10.63,-4.39 15.82,15.82 0 0 0 1.66,-2 c 5.29,-7.5 10.62,-15.95 15.73,-24.92 17,4.36 31.89,10.64 43,18.6 a 15.18,15.18 0 0 0 14.49,1.62 15.57,15.57 0 0 0 4.84,-3.25 15,15 0 0 0 4.21,-8.16 125.34,125.34 0 0 0 -29.92,-103.66 c 5.71,-27.63 7.07,-56.1 1.32,-83.08 -10.79,-51.19 -47.53,-91.3 -84.19,-128 a 15,15 0 0 0 -21.23,0 z M 24.130435,299.77 a 100.39,100.39 0 0 1 14.8,-53.65 335.71,335.71 0 0 0 16.54,41.37 168.49,168.49 0 0 0 -31.34,12.28 z m 200.119995,0 a 164.43,164.43 0 0 0 -31.34,-12.24 331.16,331.16 0 0 0 16.58,-41.4 100.37,100.37 0 0 1 14.77,53.64 z m -34.62,-161.2 c 11.79,55.85 -13.29,125.76 -44.58,173 h -41.75 c -31.259995,-47.24 -56.349995,-117.14 -44.549995,-173 8.2,-38.71 34.87,-70.76 65.439995,-102.17 30.61,31.37 57.24,63.46 65.44,102.17 z"
         id="svg_1"
         style="fill:#ff2a2a;fill-rule:evenodd;stroke-width:1.22269773"
         inkscape:connector-curvature="0" />
      <path
         class="cls-1"
         d="m 141.93043,160.2 a 25,25 0 1 0 -35.42,0 25,25 0 0 0 35.42,0 z"
         id="svg_3"
         style="fill:#ff2a2a;fill-rule:evenodd;stroke-width:1.22269773"
         inkscape:connector-curvature="0" />
    </g>
  </g>
</svg>
