<?xml version="1.0" encoding="UTF-8" standalone="no"?>
<!-- Created with Inkscape (http://www.inkscape.org/) -->

<svg
   xmlns:dc="http://purl.org/dc/elements/1.1/"
   xmlns:cc="http://creativecommons.org/ns#"
   xmlns:rdf="http://www.w3.org/1999/02/22-rdf-syntax-ns#"
   xmlns:svg="http://www.w3.org/2000/svg"
   xmlns="http://www.w3.org/2000/svg"
   xmlns:sodipodi="http://sodipodi.sourceforge.net/DTD/sodipodi-0.dtd"
   xmlns:inkscape="http://www.inkscape.org/namespaces/inkscape"
   width="553.87524mm"
   height="283.7912mm"
   viewBox="0 0 1962.5501 1005.5594"
   id="svg2"
   version="1.1"
   inkscape:version="0.91 r13725"
   sodipodi:docname="LOGO_PIXEL.svg">
  <defs
     id="defs4" />
  <sodipodi:namedview
     id="base"
     pagecolor="#ffffff"
     bordercolor="#666666"
     borderopacity="1.0"
     inkscape:pageopacity="0.0"
     inkscape:pageshadow="2"
     inkscape:zoom="0.35"
     inkscape:cx="657.38116"
     inkscape:cy="388.88543"
     inkscape:document-units="px"
     inkscape:current-layer="layer1"
     showgrid="false"
     inkscape:window-width="1366"
     inkscape:window-height="705"
     inkscape:window-x="-8"
     inkscape:window-y="-8"
     inkscape:window-maximized="1"
     fit-margin-top="0"
     fit-margin-left="0"
     fit-margin-right="0"
     fit-margin-bottom="0" />
  <metadata
     id="metadata7">
    <rdf:RDF>
      <cc:Work
         rdf:about="">
        <dc:format>image/svg+xml</dc:format>
        <dc:type
           rdf:resource="http://purl.org/dc/dcmitype/StillImage" />
        <dc:title></dc:title>
      </cc:Work>
    </rdf:RDF>
  </metadata>
  <g
     inkscape:label="Camada 1"
     inkscape:groupmode="layer"
     id="layer1"
     transform="translate(1481.275,76.131744)">
    <path
       inkscape:connector-curvature="0"
       style="fill:#ffffff;fill-opacity:1;fill-rule:nonzero;stroke:none;stroke-width:1.70000005;stroke-miterlimit:4;stroke-dasharray:none"
       d="m -222.43292,105.4027 -95.0527,0 c -10.0463,0 -18.2109,8.2353 -18.2109,18.3516 l 0.025,354.0898 -58.5059,-0.043 0,-112.0332 c 0,-10.095 -8.1929,-18.3008 -18.2754,-18.3008 l -53.7656,0 c -10.0563,0 -18.23237,8.1676 -18.23237,18.2051 l -0.045,78.0938 -30.9843,0.025 0,-28.9004 c 0,-10.0375 -8.1865,-18.2032 -18.2715,-18.2031 l -45.4278,0 c -10.0537,0 -18.2324,8.2107 -18.2324,18.3007 l 0.055,62.8555 -28.8047,-0.043 0,-248.9258 c 0,-10.1023 -8.1817,-18.3164 -18.2305,-18.3164 l -82.4082,0 c -10.0512,0 -18.2363,8.2141 -18.2363,18.3164 l -0.041,248.9688 -60.1699,0.023 0,-73.4238 c 0,-10.085 -8.2178,-18.2812 -18.334,-18.2812 l -73.9453,0 c -10.0975,0 -18.3047,8.1962 -18.3047,18.2812 l -0.1172,73.4004 -501.19141,0 0,18.2676 501.19141,0 c 10.1313,0 18.375,-8.1778 18.375,-18.2442 l 0.047,-73.4375 74.0215,0.014 0,73.4238 c 0,10.0663 8.1934,18.2442 18.2734,18.2442 l 60.1543,0 c 10.0937,0 18.3105,-8.2118 18.3105,-18.3106 l -0.033,-248.9668 82.377,0.041 0,248.9258 c 0,10.0989 8.1489,18.3106 18.1602,18.3106 l 28.9062,0 c 10.04,0 18.1992,-8.1949 18.1992,-18.2774 l -0.021,-62.8847 45.4375,-0.059 0,28.9004 c 0,10.0675 8.19,18.2343 18.2637,18.2343 l 30.9824,0 c 10.09387,0 18.30467,-8.1578 18.30467,-18.1953 l -0.025,-78.0918 53.7774,0.027 0,112.0332 c 0,10.0988 8.1835,18.3105 18.2422,18.3105 l 58.5273,0 c 10.0574,0 18.2363,-8.2281 18.2363,-18.3418 l -0.053,-354.0898 94.9844,0.074 0,354.0156 c 0,10.1137 8.1995,18.3418 18.2734,18.3418 l 583.8731,0 c 5.04,0 9.1308,-4.0916 9.1308,-9.1328 0,-5.0463 -4.0907,-9.1348 -9.1308,-9.1348 l -583.8809,-0.074 0,-354.0156 c 0,-10.1163 -8.1598,-18.3516 -18.1973,-18.3516 z m -1096.73038,474.8672 0,17.17 17.3457,0 0,-17.17 -17.3457,0 z m 86.4179,0 0,17.17 17.3399,0 0,-17.17 -17.3399,0 z m 55.377,0 0,17.17 17.3457,0 0,-17.17 -17.3457,0 z m 21.6504,0 0,17.17 17.2793,0 0,-17.17 -17.2793,0 z m 21.5918,0 0,17.17 17.3222,0 0,-17.17 -17.3222,0 z m 55.3847,0 0,17.17 17.3321,0 0,-17.17 -17.3321,0 z m 21.5879,0 0,17.17 17.3321,0 0,-17.17 -17.3321,0 z m 21.6407,0 0,17.17 17.289,0 0,-17.17 -17.289,0 z m 21.582,0 0,17.17 17.33401,0 0,-17.17 -17.33401,0 z m 55.39451,0 0,17.17 17.3301,0 0,-17.17 -17.3301,0 z m 21.5899,0 0,17.17 17.33,0 0,-17.17 -17.33,0 z m 21.5898,0 0,17.17 17.3281,0 0,-17.17 -17.3281,0 z m 218.8184,0 0,17.17 17.2793,0 0,-17.17 -17.2793,0 z m 21.5859,0 0,17.17 17.3359,0 0,-17.17 -17.3359,0 z m 21.5859,0 0,17.17 17.336,0 0,-17.17 -17.336,0 z m 55.3828,0 0,17.17 17.3399,0 0,-17.17 -17.3399,0 z m 21.6504,0 0,17.17 17.2774,0 0,-17.17 -17.2774,0 z m 21.5782,0 0,17.17 17.3476,0 0,-17.17 -17.3476,0 z m 21.5937,0 0,17.17 17.334,0 0,-17.17 -17.334,0 z m 55.38477,0 0,17.17 17.3379,0 0,-17.17 -17.3379,0 z m 21.582,0 0,17.17 17.3457,0 0,-17.17 -17.3457,0 z m 21.6406,0 0,17.17 17.2969,0 0,-17.17 -17.2969,0 z m 21.5899,0 0,17.17 17.3379,0 0,-17.17 -17.3379,0 z m 21.5976,0 0,17.17 17.336,0 0,-17.17 -17.336,0 z m 127.5547,0 0,17.17 17.3418,0 0,-17.17 -17.3418,0 z m 21.586,0 0,17.17 17.3457,0 0,-17.17 -17.3457,0 z m 21.6582,0 0,17.17 17.2675,0 0,-17.17 -17.2675,0 z m 76.9687,0 0,17.17 17.3242,0 0,-17.17 -17.3242,0 z m 21.5762,0 0,17.17 17.3496,0 0,-17.17 -17.3496,0 z m 21.5937,0 0,17.17 17.339896,0 0,-17.17 -17.339896,0 z m 55.390696,0 0,17.17 17.3242,0 0,-17.17 -17.3242,0 z m 21.6445,0 0,17.17 17.2733996,0 0,-17.17 -17.2733996,0 z m 21.5936996,0 0,17.17 17.3301004,0 0,-17.17 -17.3301004,0 z m 21.5743004,0 0,17.17 17.3418,0 0,-17.17 -17.3418,0 z m 21.6504,0 0,17.17 17.2753,0 0,-17.17 -17.2753,0 z m -878.388666,1.5762 0,17.1113 17.2715,0 0,-17.1113 -17.2715,0 z m 86.4062,0 0,17.1113 17.2715,0 0,-17.1113 -17.2715,0 z m 827.142566,0 0,17.1113 17.2754,0 0,-17.1113 -17.2754,0 z m 86.414104,0 0,17.1113 17.2695,0 0,-17.1113 -17.2695,0 z m -1482.16208,20.0605 0,17.1192 17.3457,0 0,-17.1192 -17.3457,0 z m 86.4179,0 0,17.1192 17.3399,0 0,-17.1192 -17.3399,0 z m 33.8047,0 0,17.1192 17.3184,0 0,-17.1192 -17.3184,0 z m 86.4043,0 0,17.1192 17.3262,0 0,-17.1192 -17.3262,0 z m 33.7949,0 0,17.1192 17.3321,0 0,-17.1192 -17.3321,0 z m 86.40631,0 0,17.1192 17.3301,0 0,-17.1192 -17.3301,0 z m 33.7988,0 0,17.1192 17.3301,0 0,-17.1192 -17.3301,0 z m 64.8106,0 0,17.1192 17.2929,0 0,-17.1192 -17.2929,0 z m 175.5468,0 0,17.1192 17.3282,0 0,-17.1192 -17.3282,0 z m 86.4551,0 0,17.1192 17.2852,0 0,-17.1192 -17.2852,0 z m 33.7402,0 0,17.1192 17.3399,0 0,-17.1192 -17.3399,0 z m 86.4102,0 0,17.1192 17.3359,0 0,-17.1192 -17.3359,0 z m 33.79687,0 0,17.1192 17.3379,0 0,-17.1192 -17.3379,0 z m 192.3867,0 0,17.1192 17.332,0 0,-17.1192 -17.332,0 z m 86.4023,0 0,17.1192 17.3438,0 0,-17.1192 -17.3438,0 z m 76.9649,0 0,17.1192 17.3496,0 0,-17.1192 -17.3496,0 z m 120.2225956,0 0,17.1192 17.3301004,0 0,-17.1192 -17.3301004,0 z m -835.1639656,1.5235 0,17.1094 17.2715,0 0,-17.1094 -17.2715,0 z m 86.4062,0 0,17.1094 17.2715,0 0,-17.1094 -17.2715,0 z m 827.142566,0 0,17.1094 17.2754,0 0,-17.1094 -17.2754,0 z m 86.414104,0 0,17.1094 17.2695,0 0,-17.1094 -17.2695,0 z m -1482.16208,20.0586 0,17.1269 17.3457,0 0,-17.1269 -17.3457,0 z m 86.4179,0 0,17.1269 17.3399,0 0,-17.1269 -17.3399,0 z m 33.8047,0 0,17.1269 17.3184,0 0,-17.1269 -17.3184,0 z m 86.4043,0 0,17.1269 17.3262,0 0,-17.1269 -17.3262,0 z m 33.7949,0 0,17.1269 17.3321,0 0,-17.1269 -17.3321,0 z m 86.40631,0 0,17.1269 17.3301,0 0,-17.1269 -17.3301,0 z m 33.7988,0 0,17.1269 17.3301,0 0,-17.1269 -17.3301,0 z m 86.4043,0 0,17.1269 17.3281,0 0,-17.1269 -17.3281,0 z m 153.9531,0 0,17.1269 17.3282,0 0,-17.1269 -17.3282,0 z m 86.4551,0 0,17.1269 17.2852,0 0,-17.1269 -17.2852,0 z m 33.7402,0 0,17.1269 17.3399,0 0,-17.1269 -17.3399,0 z m 86.4102,0 0,17.1269 17.3359,0 0,-17.1269 -17.3359,0 z m 33.79687,0 0,17.1269 17.3379,0 0,-17.1269 -17.3379,0 z m 192.3867,0 0,17.1269 17.332,0 0,-17.1269 -17.332,0 z m 163.3672,0 0,17.1269 17.3496,0 0,-17.1269 -17.3496,0 z m 120.2225956,0 0,17.1269 17.3301004,0 0,-17.1269 -17.3301004,0 z m -835.1639656,1.5937 0,17.1094 17.2715,0 0,-17.1094 -17.2715,0 z m 86.4062,0 0,17.1094 17.2715,0 0,-17.1094 -17.2715,0 z m 827.142566,0 0,17.1094 17.2754,0 0,-17.1094 -17.2754,0 z m 86.414104,0 0,17.1094 17.2695,0 0,-17.1094 -17.2695,0 z m -1482.16208,20.0039 0,17.3223 17.3457,0 0,-17.3223 -17.3457,0 z m 21.5976,0 0,17.3223 17.332,0 0,-17.3223 -17.332,0 z m 21.6367,0 0,17.3223 17.3321,0 0,-17.3223 -17.3321,0 z m 21.5938,0 0,17.3223 17.3398,0 0,-17.3223 -17.3398,0 z m 21.5898,0 0,17.3223 17.3399,0 0,-17.3223 -17.3399,0 z m 33.8047,0 0,17.3223 17.3184,0 0,-17.3223 -17.3184,0 z m 21.5723,0 0,17.3223 17.3457,0 0,-17.3223 -17.3457,0 z m 21.6504,0 0,17.3223 17.2793,0 0,-17.3223 -17.2793,0 z m 21.5918,0 0,17.3223 17.3222,0 0,-17.3223 -17.3222,0 z m 21.5898,0 0,17.3223 17.3262,0 0,-17.3223 -17.3262,0 z m 33.7949,0 0,17.3223 17.3321,0 0,-17.3223 -17.3321,0 z m 21.5879,0 0,17.3223 17.3321,0 0,-17.3223 -17.3321,0 z m 21.6407,0 0,17.3223 17.289,0 0,-17.3223 -17.289,0 z m 21.582,0 0,17.3223 17.33401,0 0,-17.3223 -17.33401,0 z m 55.39451,0 0,17.3223 17.3301,0 0,-17.3223 -17.3301,0 z m 86.4043,0 0,17.3223 17.3281,0 0,-17.3223 -17.3281,0 z m 153.9531,0 0,17.3223 17.3282,0 0,-17.3223 -17.3282,0 z m 21.6407,0 0,17.3223 17.2793,0 0,-17.3223 -17.2793,0 z m 21.5859,0 0,17.3223 17.3359,0 0,-17.3223 -17.3359,0 z m 21.5859,0 0,17.3223 17.336,0 0,-17.3223 -17.336,0 z m 21.6426,0 0,17.3223 17.2852,0 0,-17.3223 -17.2852,0 z m 33.7402,0 0,17.3223 17.3399,0 0,-17.3223 -17.3399,0 z m 21.6504,0 0,17.3223 17.2774,0 0,-17.3223 -17.2774,0 z m 21.5782,0 0,17.3223 17.3476,0 0,-17.3223 -17.3476,0 z m 21.5937,0 0,17.3223 17.334,0 0,-17.3223 -17.334,0 z m 55.38477,0 0,17.3223 17.3379,0 0,-17.3223 -17.3379,0 z m 21.582,0 0,17.3223 17.3457,0 0,-17.3223 -17.3457,0 z m 21.6406,0 0,17.3223 17.2969,0 0,-17.3223 -17.2969,0 z m 21.5899,0 0,17.3223 17.3379,0 0,-17.3223 -17.3379,0 z m 127.5742,0 0,17.3223 17.332,0 0,-17.3223 -17.332,0 z m 163.3672,0 0,17.3223 17.3496,0 0,-17.3223 -17.3496,0 z m 120.2225956,0 0,17.3223 17.3301004,0 0,-17.3223 -17.3301004,0 z m -835.1639656,1.5782 0,17.332 17.2715,0 0,-17.332 -17.2715,0 z m 43.1699,0 0,17.332 17.3359,0 0,-17.332 -17.3359,0 z m 43.2363,0 0,17.332 17.2715,0 0,-17.332 -17.2715,0 z m 848.730466,0 0,17.332 17.332004,0 0,-17.332 -17.332004,0 z m 43.171904,0 0,17.332 17.3437,0 0,-17.332 -17.3437,0 z m -1460.50778,20.0546 0,17.2774 17.3457,0 0,-17.2774 -17.3457,0 z m 86.4179,0 0,17.2774 17.3399,0 0,-17.2774 -17.3399,0 z m 33.8047,0 0,17.2774 17.3184,0 0,-17.2774 -17.3184,0 z m 86.4043,0 0,17.2774 17.3262,0 0,-17.2774 -17.3262,0 z m 33.7949,0 0,17.2774 17.3321,0 0,-17.2774 -17.3321,0 z m 43.2286,0 0,17.2774 17.289,0 0,-17.2774 -17.289,0 z m 76.97651,0 0,17.2774 17.3301,0 0,-17.2774 -17.3301,0 z m 86.4043,0 0,17.2774 17.3281,0 0,-17.2774 -17.3281,0 z m 153.9531,0 0,17.2774 17.3282,0 0,-17.2774 -17.3282,0 z m 86.4551,0 0,17.2774 17.2852,0 0,-17.2774 -17.2852,0 z m 33.7402,0 0,17.2774 17.3399,0 0,-17.2774 -17.3399,0 z m 43.2286,0 0,17.2774 17.3476,0 0,-17.2774 -17.3476,0 z m 76.97847,0 0,17.2774 17.3379,0 0,-17.2774 -17.3379,0 z m 192.3867,0 0,17.2774 17.332,0 0,-17.2774 -17.332,0 z m 163.3672,0 0,17.2774 17.3496,0 0,-17.2774 -17.3496,0 z m 120.2225956,0 0,17.2774 17.3301004,0 0,-17.2774 -17.3301004,0 z m -835.1639656,1.5235 0,17.3398 17.2715,0 0,-17.3398 -17.2715,0 z m 43.1699,0 0,17.3398 17.3359,0 0,-17.3398 -17.3359,0 z m 43.2363,0 0,17.3398 17.2715,0 0,-17.3398 -17.2715,0 z m 870.32227,0 0,17.3398 17.3262,0 0,-17.3398 -17.3262,0 z m -1438.92768,20.0801 0,17.332 17.3457,0 0,-17.332 -17.3457,0 z m 86.4179,0 0,17.332 17.3399,0 0,-17.332 -17.3399,0 z m 33.8047,0 0,17.332 17.3184,0 0,-17.332 -17.3184,0 z m 86.4043,0 0,17.332 17.3262,0 0,-17.332 -17.3262,0 z m 33.7949,0 0,17.332 17.3321,0 0,-17.332 -17.3321,0 z m 64.8106,0 0,17.332 17.33401,0 0,-17.332 -17.33401,0 z m 55.39451,0 0,17.332 17.3301,0 0,-17.332 -17.3301,0 z m 64.8106,0 0,17.332 17.2929,0 0,-17.332 -17.2929,0 z m 175.5468,0 0,17.332 17.3282,0 0,-17.332 -17.3282,0 z m 86.4551,0 0,17.332 17.2852,0 0,-17.332 -17.2852,0 z m 33.7402,0 0,17.332 17.3399,0 0,-17.332 -17.3399,0 z m 64.8223,0 0,17.332 17.334,0 0,-17.332 -17.334,0 z m 55.38477,0 0,17.332 17.3379,0 0,-17.332 -17.3379,0 z m 192.3867,0 0,17.332 17.332,0 0,-17.332 -17.332,0 z m 86.4023,0 0,17.332 17.3438,0 0,-17.332 -17.3438,0 z m 76.9649,0 0,17.332 17.3496,0 0,-17.332 -17.3496,0 z m 120.2225956,0 0,17.332 17.3301004,0 0,-17.332 -17.3301004,0 z m -835.1639656,1.5214 0,17.3262 17.2715,0 0,-17.3262 -17.2715,0 z m 43.1699,0 0,17.3262 17.3359,0 0,-17.3262 -17.3359,0 z m 43.2363,0 0,17.3262 17.2715,0 0,-17.3262 -17.2715,0 z m 870.32227,0 0,17.3262 17.3262,0 0,-17.3262 -17.3262,0 z m -1438.92768,20.0528 0,17.3418 17.3457,0 0,-17.3418 -17.3457,0 z m 86.4179,0 0,17.3418 17.3399,0 0,-17.3418 -17.3399,0 z m 33.8047,0 0,17.3418 17.3184,0 0,-17.3418 -17.3184,0 z m 86.4043,0 0,17.3418 17.3262,0 0,-17.3418 -17.3262,0 z m 33.7949,0 0,17.3418 17.3321,0 0,-17.3418 -17.3321,0 z m 86.40631,0 0,17.3418 17.3301,0 0,-17.3418 -17.3301,0 z m 33.7988,0 0,17.3418 17.3301,0 0,-17.3418 -17.3301,0 z m 21.5899,0 0,17.3418 17.33,0 0,-17.3418 -17.33,0 z m 21.5898,0 0,17.3418 17.3281,0 0,-17.3418 -17.3281,0 z m 197.1777,0 0,17.3418 17.3282,0 0,-17.3418 -17.3282,0 z m 86.4551,0 0,17.3418 17.2852,0 0,-17.3418 -17.2852,0 z m 33.7402,0 0,17.3418 17.3399,0 0,-17.3418 -17.3399,0 z m 86.4102,0 0,17.3418 17.3359,0 0,-17.3418 -17.3359,0 z m 33.79687,0 0,17.3418 17.3379,0 0,-17.3418 -17.3379,0 z m 21.582,0 0,17.3418 17.3457,0 0,-17.3418 -17.3457,0 z m 21.6406,0 0,17.3418 17.2969,0 0,-17.3418 -17.2969,0 z m 21.5899,0 0,17.3418 17.3379,0 0,-17.3418 -17.3379,0 z m 21.5976,0 0,17.3418 17.336,0 0,-17.3418 -17.336,0 z m 127.5547,0 0,17.3418 17.3418,0 0,-17.3418 -17.3418,0 z m 21.586,0 0,17.3418 17.3457,0 0,-17.3418 -17.3457,0 z m 21.6582,0 0,17.3418 17.2675,0 0,-17.3418 -17.2675,0 z m 76.9687,0 0,17.3418 17.3242,0 0,-17.3418 -17.3242,0 z m 21.5762,0 0,17.3418 17.3496,0 0,-17.3418 -17.3496,0 z m 21.5937,0 0,17.3418 17.339896,0 0,-17.3418 -17.339896,0 z m 98.6288956,0 0,17.3418 17.3301004,0 0,-17.3418 -17.3301004,0 z m -813.5838656,1.584 0,17.3359 17.3418,0 0,-17.3359 -17.3418,0 z m 43.1777,0 0,17.3359 17.3301,0 0,-17.3359 -17.3301,0 z m 891.97067,0 0,17.3359 17.3262,0 0,-17.3359 -17.3262,0 z"
       id="path3050-6"
       inkscape:export-xdpi="90"
       inkscape:export-ydpi="90" />
    <g
       id="g4142"
       transform="translate(-630.3352,254.55844)">
      <path
         inkscape:export-ydpi="90"
         inkscape:export-xdpi="90"
         inkscape:connector-curvature="0"
         id="rect6763"
         d="m 304.52258,73.598596 5.558,17.84113 17.8309,-5.56113 17.8309,-5.56112 17.8309,-5.561 17.8308,-5.56113 -5.558,-17.84125 -17.831,5.56113 -17.8306,5.56112 -17.8309,5.56113 -17.831,5.56112 z m -481.4335,150.916884 5.558,17.841 5.5573,17.83912 5.5579,17.841 5.5578,17.84088 5.558,17.84125 17.8309,-5.56113 -5.5572,-17.839 17.8306,-5.56112 17.8309,-5.56113 17.830996,-5.56112 -5.5579,-17.841 -17.830996,5.56112 -17.8309,5.56113 -17.8307,5.561 0,0 -5.5579,-17.841 -5.5574,-17.839 17.8309,-5.56113 17.8307,-5.56112 17.8309,-5.56113 -5.5579,-17.841 -17.8308,5.561 -17.8309,5.56113 -17.8309,5.56112 -17.8306,5.56113 z m 76.8814,-4.40338 5.557796,17.84088 5.5581,17.84125 17.8306,-5.56113 -5.5579,-17.84125 -5.558,-17.84087 -17.830596,5.56112 z m 29.915396,-28.9045 5.558,17.84088 5.5572,17.83912 5.5579,17.841 5.558,17.841 5.5579,17.84125 17.8309,-5.56112 -5.558,-17.84125 -5.5579,-17.841 -5.5579,-17.84088 -5.5574,-17.83925 -5.5578,-17.84087 -17.8309,5.56112 z m 36.0281,-11.2365 5.5579,17.841 17.8309,-5.56112 -5.558,-17.841 -17.8308,5.56112 z m 23.3888,12.27988 5.5577996,17.841 17.8308004,-5.56113 -5.5579004,-17.841 -17.8306996,5.56113 z m 23.3886,12.27987 5.5579,17.84113 17.831,-5.56113 -5.5579,-17.84112 -17.831,5.56112 z m 17.831,-5.56112 17.8309,-5.56113 -5.558,-17.841 -17.8309,5.56113 5.558,17.841 z m 12.2729,-23.40213 17.8307,-5.561 -5.558,-17.84112 -17.8306,5.56112 5.5579,17.841 z m -6.715,41.24325 5.558,17.84113 17.8307,-5.56113 5.5573,17.839 17.8308,-5.56112 -5.5578,-17.84113 -17.8309,5.56113 -5.5573,-17.839 -17.8308,5.56112 z m -17.831,5.56113 -17.83070041,5.56112 5.55730001,17.83888 -17.8308996,5.56112 5.5578996,17.84125 17.8309004,-5.56112 -5.5573004,-17.839 17.8308004,-5.56113 -5.558,-17.84112 z m 54.9532,-75.86225 5.558,17.841 5.5573,17.83912 5.5578,17.84088 5.558,17.84112 5.557904,17.84113 17.831,-5.56125 17.8309,-5.56088 17.8307,-5.56112 17.8289,-5.56063 17.8308,-5.56112 -5.558,-17.841 -17.8308,5.56112 -17.8289,5.56038 -17.8308,5.56112 -17.8307,5.56113 -5.558,-17.84113 17.8308,-5.561 17.8309,-5.56112 17.8288,-5.5605 17.8308,-5.56113 -5.5579,-17.841 -17.8307,5.56113 -17.829,5.5605 -17.8307,5.56112 -17.8308,5.561 -5.557404,-17.839 17.830704,-5.56112 17.8309,-5.56113 17.8289,-5.5605 17.8309,-5.561 -5.558,-17.84112 -17.8309,5.56112 -17.8288,5.56063 -17.8308,5.56087 -17.830804,5.56113 -17.831,5.56125 z m 105.902304,-33.029 5.558,17.841 5.5572,17.83912 5.5579,17.841 5.558,17.84113 5.5579,17.841 17.8308,-5.56113 17.8309,-5.56112 17.8308,-5.56113 17.8288,-5.56037 17.8309,-5.56113 -5.558,-17.84125 -17.8307,5.56113 -17.8289,5.56062 -17.8309,5.56113 -17.831,5.56112 -5.5577,-17.84112 -5.5579,-17.841 -5.5574,-17.83913 -5.558,-17.841 -17.8307,5.56113 z m 113.1727,-16.390754 5.5579,17.841004 17.8309,-5.56113 -5.5579,-17.841004 -17.8309,5.56113 z m 23.3888,12.279874 5.558,17.84113 17.831,-5.56113 17.8306,-5.56112 17.8309,-5.56113 -5.5579,-17.841004 -17.8309,5.561 -17.8307,5.561004 -17.831,5.56125 z m 59.2397,1.76525 5.558,17.84113 17.8308,-5.56125 -5.5578,-17.841 -17.831,5.56112 z m 5.558,17.84113 -17.8309,5.561 -17.8308,5.561 -17.8309,5.56125 -17.8309,5.56112 5.558,17.84113 17.8309,-5.56113 17.831,-5.56112 17.8306,-5.56113 17.8309,-5.56112 -5.5579,-17.841 z"
         style="opacity:1;fill:#ea282e;fill-opacity:1;stroke:none;stroke-width:0.63779527;stroke-linecap:round;stroke-linejoin:round;stroke-miterlimit:3.70000005;stroke-dasharray:15.30708661, 0.63779528;stroke-dashoffset:0" />
      <path
         inkscape:export-ydpi="90"
         inkscape:export-xdpi="90"
         inkscape:connector-curvature="0"
         id="path6891"
         d="m 260.74828,373.2811 -1.9889,-0.835 -12.375,-38.90875 c -11.9588,-37.6 -14.8711,-45.9065 -15.9308,-45.4355 -0.7211,0.32013 -1.8712,6.633 -1.9847,10.89138 -0.097,3.67912 -0.3631,6.33712 -0.6951,6.96537 -0.3692,0.69813 -0.6142,3.43825 -0.6543,7.31388 -0.023,2.197 -0.3527,5.1155 -0.7337,6.48562 -0.381,1.37025 -0.9808,4.37275 -1.3327,6.67238 -0.4682,3.05837 -1.4365,5.6895 -3.6051,9.7985 -1.6309,3.08925 -3.3135,5.72587 -3.7395,5.85875 -0.426,0.133 -0.702,0.47487 -0.6131,0.76 0.204,0.65475 -7.2411,3.01775 -8.6719,2.75287 -0.5762,-0.1075 -1.9845,-0.294 -3.1296,-0.416 -3.0538,-0.32562 -8.541,-3.76875 -9.1569,-5.74587 -0.1342,-0.43163 -0.4775,-0.712 -0.7625,-0.62313 -0.285,0.09 -0.6852,-0.375 -0.8896,-1.03075 -0.2044,-0.65575 -0.654,-1.34762 -0.9994,-1.53687 -2.0917,-1.148 -11.3959,-31.00438 -10.32,-33.12738 0.1784,-0.35287 0.016,-1.63087 -0.3605,-2.84012 -0.3766,-1.20925 -0.4967,-2.41563 -0.2666,-2.68063 0.2301,-0.26512 0.1682,-1.28475 -0.1373,-2.26587 -0.306,-0.98113 -0.3228,-1.8565 -0.037,-1.94538 0.2849,-0.0887 0.3044,-0.84762 0.044,-1.68625 -0.2613,-0.83875 -0.2868,-1.74162 -0.057,-2.00662 0.2301,-0.26525 0.2089,-1.1545 -0.048,-1.97613 -0.256,-0.82175 -0.2773,-1.711 -0.047,-1.97612 0.23,-0.26513 0.2451,-1.03775 0.034,-1.71675 -0.2116,-0.67938 -0.1965,-1.45188 0.034,-1.71688 0.2301,-0.26512 0.2045,-1.16825 -0.058,-2.00662 -0.2611,-0.83875 -0.2418,-1.5975 0.044,-1.68638 0.285,-0.0888 0.3408,-0.73112 0.1238,-1.42712 -0.2169,-0.696 -0.206,-1.48238 0.025,-1.74738 0.2301,-0.26512 0.2451,-1.03775 0.034,-1.71687 -0.2116,-0.67925 -0.1963,-1.45188 0.034,-1.71688 0.2299,-0.26512 0.2762,-0.938 0.1025,-1.49537 -0.3049,-0.97875 -0.275,-1.54175 0.2357,-4.43263 0.1303,-0.7405 0.091,-1.81587 -0.087,-2.39012 -0.1787,-0.57413 -0.092,-1.1165 0.193,-1.20538 0.2849,-0.09 0.3718,-0.63137 0.1929,-1.2055 -0.1787,-0.57412 -0.2364,-1.58 -0.1275,-2.23537 l 0.3946,-2.38288 c 0.1088,-0.65512 0.019,-1.764 -0.199,-2.46375 -0.218,-0.69987 -0.2082,-1.4895 0.021,-1.7545 0.2301,-0.26512 0.095,-1.51825 -0.2989,-2.78425 -0.6716,-2.156 -0.8066,-2.2745 -2.1166,-1.866 -1.1354,0.35425 -2.7251,3.02288 -8.4255,14.14588 -7.264,14.17312 -8.645,17.6845 -9.7528,24.79812 -0.3583,2.3015 -0.7366,4.33913 -0.8403,4.528 -0.2322,0.42213 -0.7189,2.6175 -1.2869,5.80475 -0.2361,1.325 -0.5096,2.56213 -0.6078,2.74925 -0.1732,0.33025 -0.2868,0.82063 -1.2646,5.44925 -0.2556,1.20975 -0.7107,2.956 -1.0116,3.88025 -0.3009,0.92413 -0.5029,1.82175 -0.4491,1.9945 0.055,0.17288 -0.2982,3.05875 -0.7828,6.41313 -0.4844,3.35425 -0.7332,7.6525 -0.5526,9.5515 0.2442,2.56875 0.1075,3.52175 -0.5379,3.72275 -0.4764,0.1485 -1.046,0.88637 -1.2656,1.63937 l -0.3994,1.36938 -2.151,-0.66575 c -2.867,-0.88713 -4.5371,-2.02888 -4.9812,-3.405 -0.2077,-0.62063 -0.6435,-1.20388 -0.9834,-1.29113 -0.3445,-0.0888 -1.3243,-2.42587 -2.2139,-5.28187 -0.8897,-2.85625 -1.4109,-5.33638 -1.1777,-5.605 0.2301,-0.26513 0.064,-1.62088 -0.3702,-3.013 -0.4336,-1.392 -0.6002,-2.74788 -0.3701,-3.01275 0.2301,-0.26525 0.1683,-1.285 -0.1372,-2.266 -0.3058,-0.98125 -0.3227,-1.85663 -0.038,-1.9455 0.285,-0.0888 0.3045,-0.84763 0.044,-1.68625 -0.2611,-0.83863 -0.2866,-1.74175 -0.058,-2.00675 0.23,-0.26513 0.2089,-1.15425 -0.047,-1.976 -0.256,-0.82188 -0.2772,-1.71113 -0.048,-1.97613 0.23,-0.26512 0.2088,-1.15425 -0.047,-1.976 -0.256,-0.82187 -0.2774,-1.71112 -0.048,-1.97612 0.2301,-0.26513 0.2089,-1.15425 -0.047,-1.976 -0.256,-0.82188 -0.2772,-1.71113 -0.047,-1.97613 0.23,-0.26512 0.2088,-1.15425 -0.048,-1.976 -0.256,-0.82187 -0.2771,-1.71112 -0.047,-1.97612 0.2301,-0.26513 0.2089,-1.1545 -0.048,-1.976 -0.256,-0.82188 -0.2772,-1.71113 -0.047,-1.97613 0.2301,-0.26525 0.209,-1.1545 -0.048,-1.97612 -0.2561,-0.82175 -0.2772,-1.71113 -0.047,-1.97613 0.2299,-0.26512 0.1463,-1.35487 -0.1859,-2.42137 -0.3325,-1.06675 -0.4333,-2.265 -0.2247,-2.66313 0.4991,-0.95187 -1.1418,-5.086 -2.0241,-5.0995 -0.3777,0 -0.9432,0.6425 -1.2568,1.44063 -0.3135,0.79837 -1.0772,2.39762 -1.6971,3.55387 -2.6929,5.022 -6.4513,20.2915 -7.7456,31.46875 -0.1504,1.29825 -0.5342,4.36138 -0.8529,6.80713 -0.319,2.44575 -0.616,4.97 -0.6604,5.6095 -0.045,0.6395 -0.1395,1.897 -0.2115,2.79437 -0.071,0.89738 0.031,2.14513 0.2291,2.77263 0.6679,2.09787 -1.2221,10.95125 -3.1575,14.82762 -1.5955,3.19588 -2.1487,3.83588 -3.7472,4.33438 -1.0313,0.32175 -2.089,0.40825 -2.3504,0.1925 -0.7376,-0.60913 -2.9992,-0.91288 -4.1422,-0.5565 -1.906,0.5945 -3.491,-1.824 -5.5415,-8.45513 -1.0172,-3.31062 -1.9417,-7.09287 -2.041,-8.40912 -0.1063,-1.4055 -0.4742,-2.67138 -0.8915,-3.06663 -0.5518,-0.52312 -0.8174,0.10625 -1.1903,2.82088 -2.2716,16.54 -3.600604,21.952 -6.791104,27.65625 -2.5049,4.47837 -4.5785,6.25262 -8.868,7.58712 -4.2184,1.31563 -5.9309,0.94088 -8.8973,-1.93212 -1.5293,-1.48113 -1.9533,-2.50563 -4.7431,-11.46075 -2.5355,-8.13888 -3.1906,-9.79475 -3.7977,-9.60538 -0.4035,0.12625 -0.7529,0.44163 -0.7763,0.70175 -0.091,1.01688 -3.8099,5.141 -5.4222,6.0125 -8.0857,4.37013 -10.8037,4.91988 -14.759,2.98463 -1.7503,-0.85625 -3.0967,-1.90875 -3.3075,-2.58538 -0.5694,-1.82787 -2.2004,-0.83912 -2.9915,1.814 -0.3858,1.29325 -2.0838,5.19 -3.7734,8.65888 -1.6896,3.46912 -3.2576,6.90162 -3.4846,7.628 -0.8022,2.56637 -3.775,8.1695 -4.9487,9.32637 -0.654,0.64463 -1.266,1.33613 -1.3598,1.5365 -0.4185,0.89275 -5.7978,5.765 -6.6625,6.03475 -0.5287,0.16475 -1.0245,0.54713 -1.1023,0.8495 -0.1487,0.57975 -2.2159,1.74488 -6.2485,3.52288 -1.8897,0.83312 -2.9875,0.97162 -4.9629,0.6265 -2.6486004,-0.46275 -5.9746004,-1.71113 -6.1621004,-2.31288 -0.06,-0.19262 -0.6816,-0.67712 -1.3815,-1.07687 -0.6996,-0.39938 -1.76850001,-1.27125 -2.37510001,-1.93713 -0.6065,-0.66587 -1.43499999,-1.55137 -1.84099999,-1.968 -0.4059,-0.4165 -0.8699,-1.18062 -1.0309,-1.69775 -0.1612,-0.517 -0.6102,-1.10675 -0.998,-1.31037 -0.464,-0.24363 -1.8601,-4.36575 -4.0855,-12.064 -3.6844996,-12.74525 -4.9723996,-18.29513 -4.4750996,-19.287 0.1766,-0.35238 0.085,-1.39663 -0.2023,-2.32075 -0.2878,-0.92425 -0.3352,-1.897 -0.1062,-2.16213 0.2301,-0.26512 0.1,-1.50437 -0.2894,-2.75375 -0.3892,-1.2495 -0.5195,-2.48862 -0.2894,-2.75362 0.2302,-0.26513 0.2047,-1.16838 -0.058,-2.00663 -0.2613,-0.83875 -0.2418,-1.5975 0.044,-1.68637 0.285,-0.09 0.3364,-0.74475 0.1137,-1.45763 -0.2221,-0.71287 -0.1706,-1.36875 0.1138,-1.45762 0.2849,-0.09 0.377,-0.61438 0.2046,-1.16788 -0.1725,-0.55362 -0.125,-1.22325 0.105,-1.48825 0.23,-0.26512 0.2773,-0.935 0.105,-1.48825 -0.1724,-0.55362 -0.08,-1.079 0.2046,-1.16787 0.2849,-0.0888 0.3728,-0.62813 0.1952,-1.1985 -0.1777,-0.57013 -0.1448,-1.09238 0.074,-1.16025 0.2179,-0.0675 0.5035,-1.129 0.635,-2.35763 0.5818,-5.43637 4.4879996,-9.7885 13.5423996,-15.08862 2.9529,-1.7285 6.4571,-2.81238 8.5237004,-2.63563 6.4443,0.54938 6.7508,0.68813 9.143,4.13575 1.5707,2.26325 1.7854,2.87488 1.8202,5.18238 0.043,2.82337 -0.1829,3.38537 -1.802,4.49275 -1.0333,0.70687 -1.0805,0.63725 -2.3643,-3.48363 -1.1376,-3.65137 -1.5137,-4.31887 -2.8584,-5.06925 -2.0261,-1.131 -5.8467004,-1.89887 -7.2580004,-1.45875 -1.8007,0.56163 -3.7581,3.53163 -4.2467,6.44325 -0.2493,1.48575 -0.7206,3.28088 -1.0475,3.98925 -0.3269,0.7085 -0.499,1.594 -0.3825,1.96788 0.1162,0.37387 -0.021,0.75262 -0.3064,0.84162 -0.2849,0.0888 -0.38470001,0.58913 -0.222,1.112 0.1629,0.52263 0.1873,1.15763 0.054,1.41113 -0.39890001,0.76075 -0.47130001,8.10112 -0.093,9.368 0.1882,0.6495 0.268,1.6485 0.165,2.22375 -0.1038,0.57537 -0.1317,2.18062 -0.064,3.56737 0.068,1.3865 0.1289,3.30538 0.136,4.26388 0.014,0.9585 0.1568,2.20425 0.3325,2.76862 0.1759,0.56425 0.1781,1.31313 0,1.66438 -0.173,0.35112 -0.1212,1.72975 0.1163,3.06375 2.011,11.32587 2.8283,14.837 4.1641,17.888 0.8156,1.86275 1.9136,4.72775 2.4402,6.3665 0.5262,1.63887 1.2883,3.321 1.6923004,3.73812 0.4042,0.41713 1.3155,1.60125 2.0247,2.63138 1.8589,2.69925 3.777,3.65687 5.9615,2.9755 3.7974,-1.18438 9.4665,-6.20288 11.428,-10.11588 6.607,-13.182 8.7694,-17.8225 10.3913,-22.30012 0.4201,-1.16025 0.9255,-2.43925 1.1229,-2.8425 1.5682,-3.20225 1.6273,-4.752 0.3393,-8.88625 -0.7137,-2.29163 -1.1095,-4.38325 -0.8795,-4.64825 0.23,-0.26513 0.1362,-1.38775 -0.2086,-2.49463 -0.3449,-1.10687 -0.4387,-2.22937 -0.2086,-2.49437 0.2301,-0.26525 0.2087,-1.15438 -0.047,-1.97613 -0.256,-0.82175 -0.2774,-1.71112 -0.048,-1.97612 0.2301,-0.26513 0.241,-1.0515 0.025,-1.74738 -0.2168,-0.69612 -0.161,-1.33825 0.1237,-1.42712 0.285,-0.0888 0.3044,-0.84763 0.044,-1.68625 -0.2614,-0.83863 -0.2868,-1.74163 -0.058,-2.00663 0.2299,-0.26512 0.2407,-1.05162 0.024,-1.74737 -0.2167,-0.69613 -0.161,-1.33825 0.1238,-1.42713 0.285,-0.09 0.4236,-0.46525 0.3081,-0.836 -0.2971,-0.95375 0.1395,-3.84412 0.6033,-3.99412 0.2136,-0.0662 0.2843,-0.45588 0.1583,-0.85975 -0.1261,-0.40375 -0.069,-0.86938 0.125,-1.03438 0.1944,-0.16587 0.8344,-1.6015 1.4215,-3.19187 1.7269,-4.67775 2.4492,-5.61838 7.5662,-9.85463 1.687,-1.397 5.7718,-3.40425 10.9862,-5.39937 l 4.3336,-1.65763 2.5579,1.392 c 4.7163,2.56688 6.2354,5.07488 4.3733,7.21975 -0.7147,0.82325 -0.8919,0.85438 -1.0982,0.1925 -0.3631,-1.166 -2.0058,-2.59275 -5.9462,-5.16437 -1.4029,-0.91575 -1.8159,-0.8935 -5.3659,0.28887 -5.7766,1.92388 -8.1645,4.75138 -8.9839,10.63975 -0.2273,1.635 -0.495,3.44263 -0.5946,4.01688 -0.099,0.57425 -0.046,1.47512 0.1163,2.00175 0.1641,0.5265 0.1918,1.1605 0.062,1.40875 -0.1303,0.24812 -0.2953,1.81387 -0.367,3.47962 -0.1125,2.63613 -0.1609,5.0105 -0.2663,13.34975 -0.014,0.9645 0.1683,2.36488 0.4011,3.11188 0.2327,0.74712 0.2348,1.57525 0,1.84037 -0.6172,0.71125 1.5457,7.12675 3.1207,9.2565 1.819,2.4595 4.5732,3.82463 7.0405,3.48988 2.4633,-0.33438 3.9378,-1.43525 5.3918,-4.02613 1.2592,-2.24387 2.9934,-7.57937 2.7342,-8.41175 -0.095,-0.30512 0,-0.611 0.2145,-0.67987 0.515,-0.17475 0.8852,-3.08863 0.532,-4.22288 -0.1548,-0.4965 -0.094,-1.11975 0.137,-1.38487 0.2301,-0.26513 0.1726,-1.271 -0.1275,-2.23525 -0.3007,-0.96438 -0.3582,-1.97025 -0.1277,-2.23525 0.2302,-0.26525 0.2089,-1.15438 -0.048,-1.97613 -0.256,-0.82175 -0.2772,-1.711 -0.047,-1.97612 0.23,-0.26513 0.2452,-1.03775 0.034,-1.71675 -0.2116,-0.67938 -0.1965,-1.45188 0.034,-1.71688 0.2302,-0.26512 0.2453,-1.03775 0.034,-1.71687 -0.2118,-0.67925 -0.1965,-1.45188 0.034,-1.71688 0.23,-0.26512 0.2088,-1.15437 -0.047,-1.976 -0.256,-0.82187 -0.2771,-1.71112 -0.048,-1.97612 0.23,-0.26525 0.3084,-0.83488 0.1742,-1.26613 -0.4057,-1.3015 0.5466,-2.46812 2.9741,-3.6445 2.1941,-1.06325 2.3637,-1.05587 3.5605,0.15638 0.6911,0.69962 1.1426,1.489 1.0029,1.75337 -0.1395,0.26463 0.4372,3.25263 1.2817,6.64013 0.8446,3.3875 1.6416,7.40587 1.7713,8.92962 0.1302,1.52375 0.624,4.825 1.0983,7.33613 0.4745,2.51112 1.019,5.92462 1.2099,7.58575 0.5978,5.20425 1.5678,10.384 3.0464,16.26362 1.6149,6.42275 2.1692,7.1365 4.8892,6.28838 1.3633,-0.42525 2.1477,-1.32375 3.9285,-4.50113 1.224,-2.18337 2.1684,-4.15237 2.099,-4.3755 -0.069,-0.22312 0.1838,-1.05212 0.563,-1.84187 0.3793,-0.79 0.5943,-1.742 0.4778,-2.116 -0.1163,-0.37375 0.021,-0.7525 0.3064,-0.8415 0.285,-0.0888 0.4151,-0.49225 0.2893,-0.896 -0.1261,-0.40388 -0.079,-0.86675 0.1063,-1.0285 0.4821,-0.42338 1.3049,-5.39088 1.036,-6.2545 -0.125,-0.40063 0,-0.80125 0.2911,-0.89 0.285,-0.09 0.3771,-0.6145 0.2046,-1.16788 -0.1723,-0.5535 -0.125,-1.22325 0.105,-1.48825 0.230004,-0.26525 0.277304,-0.93487 0.105,-1.48825 -0.1725,-0.55362 -0.08,-1.079 0.204704,-1.16787 0.2848,-0.0888 0.377,-0.6145 0.2045,-1.16775 -0.1724,-0.55363 -0.125,-1.22338 0.105,-1.48838 0.2301,-0.26512 0.2772,-0.93487 0.105,-1.48812 -0.1725,-0.55363 -0.08,-1.079 0.2046,-1.16788 0.2849,-0.09 0.377,-0.6145 0.2046,-1.168 -0.1724,-0.55337 -0.125,-1.22312 0.105,-1.48812 0.2301,-0.26513 0.2773,-0.935 0.105,-1.48825 -0.1724,-0.5535 -0.08,-1.079 0.2046,-1.16775 0.2852,-0.0888 0.377,-0.6145 0.2048,-1.168 -0.1725,-0.5535 -0.125,-1.22313 0.105,-1.48825 0.2301,-0.26513 0.2191,-1.1215 -0.025,-1.90288 -0.2435,-0.78175 -0.3011,-1.7085 -0.1289,-2.0595 0.3771,-0.76562 -0.2249,-4.43112 -1.728504,-10.52387 -0.6094,-2.46913 -0.9604,-4.77863 -0.7796,-5.132 0.1805,-0.35363 0.057,-1.5155 -0.276,-2.58213 -0.3324,-1.06675 -0.416,-2.15625 -0.1859,-2.4215 0.2301,-0.26512 0.095,-1.51812 -0.2989,-2.78412 -0.3945,-1.26638 -0.4841,-2.37513 -0.1991,-2.464 0.285,-0.0888 0.1591,-1.31425 -0.2799,-2.72313 -0.4388,-1.40887 -0.6096,-2.77837 -0.3796,-3.0435 0.23,-0.26512 -0.014,-1.868 -0.5411,-3.56187 l -0.9595,-3.08 1.6384,-0.511 c 0.901,-0.281 2.834504,-0.23325 4.296504,0.10625 2.1955,0.5095 2.7421,0.88662 3.1408,2.1665 0.2655,0.8525 1.4159,2.83825 2.5565,4.41275 1.5384,2.12437 2.2309,3.62825 2.6839,5.82837 2.222,10.79188 3.2479,15.52 4.687,21.60175 0.8964,3.78725 1.7851,7.92638 1.9754,9.19788 0.1902,1.2715 0.5757,2.60312 0.8566,2.95925 0.624,0.79075 2.5661,-0.27763 2.2645,-1.24588 -0.195,-0.62625 0.5064,-5.49387 0.8995,-6.24012 0.099,-0.18713 0.31,-1.149 0.47,-2.13738 0.16,-0.9885 0.3716,-1.95025 0.4703,-2.1375 0.2248,-0.42725 0.7208,-2.68075 1.2772,-5.80187 0.2359,-1.32488 0.5095,-2.56213 0.6075,-2.749 0.1785,-0.3405 1.0274,-4.60025 1.4191,-7.1215 0.1138,-0.73725 0.3827,-1.39663 0.5957,-1.46563 0.2136,-0.0662 0.2783,-0.47512 0.1451,-0.90275 -0.1329,-0.42775 -0.014,-0.85037 0.2759,-0.93925 0.2848,-0.0888 0.4402,-0.41162 0.345,-0.71712 -0.095,-0.3055 0.035,-0.954 0.2915,-1.441 0.2553,-0.48713 0.9565,-2.13688 1.558,-3.66625 1.5416,-3.919 4.1145,-8.57875 5.1282,-9.28675 0.4718,-0.3295 0.8016,-0.77938 0.7331,-0.99938 -0.2611,-0.83825 2.2919,-2.49112 5.449,-3.528 2.5672,-0.8435 3.693,-0.9445 5.1587,-0.464 1.0311,0.33825 2.1145,0.54 2.4076,0.44863 0.2929,-0.0913 0.7672,0.20837 1.054,0.66662 0.2865,0.45788 1.1547,1.851 1.9291,3.09563 0.833,1.3385 1.58,3.31237 1.829,4.83312 0.2316,1.4135 0.7416,4.39 1.1338,6.61388 1.1567,6.562 1.3782,8.35362 1.1172,9.03662 -0.1356,0.35513 -0.066,1.80513 0.154,3.22263 0.3705,2.38212 0.4836,2.551 1.4959,2.23525 0.628,-0.196 0.9917,-0.67325 0.8529,-1.11925 -0.133,-0.42775 -0.036,-0.84188 0.2155,-0.92038 0.2516,-0.0787 0.4638,-0.59275 0.4715,-1.1425 0.014,-0.55 0.3708,-2.39087 0.8066,-4.09087 0.4361,-1.70025 0.799,-3.54125 0.8066,-4.09088 0.014,-0.55012 0.22,-1.06412 0.4718,-1.14262 0.2517,-0.0788 0.3671,-0.43463 0.2565,-0.791 -0.1113,-0.35663 0.1835,-1.53613 0.6538,-2.62125 0.4704,-1.08513 1.0352,-2.73325 1.255,-3.662 0.2198,-0.92888 0.5827,-1.74588 0.8063,-1.8155 0.2235,-0.0688 0.2972,-0.47688 0.1641,-0.9045 -0.133,-0.42775 -0.049,-0.838 0.1883,-0.91188 0.2367,-0.0738 0.5616,-0.87925 0.7217,-1.78925 0.16,-0.91037 0.5581,-2.2345 0.8845,-2.94287 0.3266,-0.70813 0.5356,-1.47438 0.4646,-1.7025 -0.2261,-0.72588 0.853,-3.117 5.0449,-11.17725 4.3334,-8.332 7.2144,-11.88438 10.4598,-12.8965 4.4002,-1.37238 12.8221,-0.86663 14.143,0.84937 1.3453,1.74813 3.81,10.12863 4.099,13.93788 0.4607,6.07162 0.4326,7.326 -0.2964,13.17462 -0.2231,1.79013 -0.4985,4.17975 -0.6119,5.31 -0.1125,1.13025 -0.3266,3.08363 -0.4737,4.34075 -0.3337,2.84888 -0.3204,5.06088 0.05,8.58888 0.1593,1.5145 0.4137,3.93062 0.5655,5.3695 0.6615,6.27762 0.8702,8.27862 1.1198,10.74212 1.0974,10.8185 1.8354,14.94713 4.3097,24.10938 1.7507,6.48325 2.3741,8.16162 3.5388,9.52987 1.8514,2.1745 4.5879,3.57738 6.0744,3.11388 1.19,-0.37138 4.2428,-5.75475 3.8954,-6.86963 -0.094,-0.30187 0.062,-0.62162 0.3472,-0.71037 0.2849,-0.09 0.4152,-0.49225 0.2893,-0.89613 -0.1261,-0.40387 -0.079,-0.86675 0.1062,-1.0285 0.419,-0.36787 1.2414,-3.65412 1.248,-4.98687 0,-0.54838 0.2109,-1.06113 0.4628,-1.13963 0.2516,-0.0788 0.3121,-0.60925 0.1342,-1.17962 -0.1775,-0.57025 -0.09,-1.1095 0.1952,-1.1985 0.2851,-0.09 0.3728,-0.62813 0.1951,-1.19838 -0.1776,-0.57025 -0.09,-1.1095 0.1951,-1.1985 0.285,-0.0888 0.3729,-0.62812 0.1953,-1.19837 -0.1778,-0.57025 -0.09,-1.10963 0.1951,-1.1985 0.2849,-0.0888 0.4235,-0.46513 0.308,-0.83588 -0.2973,-0.95375 0.1394,-3.84412 0.6031,-3.99425 0.2138,-0.0662 0.2785,-0.47512 0.1453,-0.90287 -0.133,-0.42763 -0.053,-0.83663 0.1792,-0.909 0.2318,-0.0725 0.487,-1.04775 0.5675,-2.16788 0.08,-1.12 0.3359,-2.0955 0.5678,-2.16775 0.2317,-0.0725 0.3183,-0.46212 0.1926,-0.866 -0.1263,-0.40375 -0.079,-0.86662 0.1062,-1.02837 0.4727,-0.415 1.6844,-7.82325 1.419,-8.67513 -0.1212,-0.38762 0.014,-0.77737 0.2985,-0.86637 0.285,-0.09 0.4209,-0.474 0.3018,-0.85613 -0.12,-0.38212 0.2596,-3.37962 0.8411,-6.66125 0.5818,-3.28175 1.1556,-6.57125 1.2756,-7.31012 0.12,-0.73875 0.3925,-1.39975 0.6055,-1.46863 0.5999,-0.20137 -6.7562,-23.36612 -7.479,-23.55187 -0.3457,-0.0887 -1.3007,-2.37613 -2.1667,-5.188 -1.9636,-6.3765 -1.7604,-7.20125 1.9154,-7.77975 2.4401,-0.384 3.1371,-0.1385 10.1258,3.5675 4.1279,2.18875 7.9918,4.53187 8.5859,5.207 1.4614,1.66 2.6331,3.10025 3.3218,4.08312 0.7796,1.1125 2.2685,0.55225 2.2043,-0.82975 -0.029,-0.61675 0.1539,-1.1855 0.4058,-1.26412 0.2516,-0.0788 0.3122,-0.60925 0.1342,-1.1795 -0.1776,-0.57025 -0.09,-1.10963 0.1953,-1.1985 0.285,-0.09 0.3727,-0.62825 0.1951,-1.19838 -0.1777,-0.57037 -0.09,-1.1095 0.1951,-1.1985 0.2849,-0.0888 0.409,-0.5115 0.2759,-0.93925 -0.133,-0.42762 -0.014,-0.85025 0.2758,-0.93912 0.2851,-0.09 0.4405,-0.41125 0.3455,-0.71625 -0.1652,-0.52975 1.0936,-5.0405 2.1366,-7.65675 1.8965,-4.75788 4.8802,-9.22488 7.8857,-11.80688 1.6414,-1.40975 7.5835,-3.2475 9.3058,-2.87675 3.9966,0.85838 7.031,3.41363 9.9811,8.40513 3.0811,5.21325 4.341,8.32362 8.5404,21.08362 5.1791,15.73638 4.7977,15.25025 8.2311,10.46563 1.11,-1.5465 2.5056,-3.29975 3.1015,-3.89638 0.5958,-0.59662 1.1561,-1.26112 1.2453,-1.47675 0.09,-0.2155 1.0351,-1.28487 2.1021,-2.37637 1.067,-1.09163 2.0146,-2.155 2.1061,-2.36325 0.091,-0.20825 1.0395,-1.27063 2.1068,-2.36088 1.0673,-1.09025 3.0196,-3.29875 4.3381,-4.908 1.3185,-1.60912 2.5107,-2.961 2.6492,-3.00425 0.5084,-0.15862 -0.6333,3.61075 -1.147,3.78688 -0.2907,0.105 -1.4598,1.84262 -2.5945,3.87237 -1.1347,2.02963 -2.6526,4.34263 -3.373,5.13975 -0.7202,0.79725 -1.2526,1.6325 -1.1828,1.85625 0.069,0.22363 -0.1648,0.49775 -0.5209,0.60913 -0.3563,0.11125 -1.1434,0.99687 -1.7494,1.96762 -0.6059,0.97075 -1.2429,1.80888 -1.4152,1.86263 -0.1722,0.0538 -0.7303,0.80362 -1.24,1.6665 -0.5094,0.86275 -1.6319,2.5435 -2.4939,3.735 -2.299,3.17762 -4.1476,7.06475 -4.2218,8.87787 -0.1488,3.64025 -0.074,5.72188 0.2462,6.74625 0.5741,1.84313 -1.3677,16.50175 -2.2213,16.76788 -0.7057,0.22025 -4.1617,5.2755 -4.6356,6.78112 -0.6275,1.993 -1.9414,4.37088 -2.5136,4.54938 -0.2772,0.0875 -0.7817,0.8855 -1.121,1.77562 -0.737,1.93388 -1.7183,2.0005 -5.1065,0.34688 -1.2904,-0.62975 -2.5219,-1.09238 -2.7364,-1.02838 -0.5923,0.1705 -2.5325,-6.49 -2.0521,-7.0435 0.2301,-0.26512 0.241,-1.0515 0.025,-1.7475 -0.2168,-0.696 -0.218,-1.3205 0,-1.3875 0.2156,-0.0675 0.4888,-0.96625 0.6075,-1.99775 0.1175,-1.03137 0.4471,-2.43525 0.7302,-3.1195 0.283,-0.68425 0.8321,-2.00025 1.2201,-2.92462 0.3882,-0.92438 0.7977,-2.37438 0.91,-3.22213 0.1125,-0.84787 0.2843,-2.011 0.3818,-2.5845 0.098,-0.57362 -0.1465,-2.08225 -0.5421,-3.35237 -0.3957,-1.27013 -0.5313,-2.52638 -0.3012,-2.79138 0.23,-0.26512 10e-4,-1.82137 -0.5088,-3.45825 -0.5099,-1.63687 -0.7814,-3.265 -0.6032,-3.61762 0.1785,-0.35288 -0.4041,-3.48588 -1.2946,-6.96213 -0.8905,-3.47637 -2.6676,-10.47275 -3.9491,-15.54775 -5.3116,-21.03262 -5.4164,-21.38612 -6.472,-21.82087 -1.3636,-0.56163 -2.6915,0.50837 -4.3103,3.47337 -2.3413,4.28913 -3.8885,10.78575 -5.2917,22.223 -0.1,0.81338 -0.2708,1.63438 -0.3795,1.82488 -0.3925,0.68587 -1.7754,9.19912 -1.7825,10.97275 0,0.998 0.3624,3.74675 0.8142,6.1085 0.4519,2.36187 1.0543,5.88525 1.3384,7.83012 0.2841,1.94488 0.853,5.35088 1.2641,7.56875 0.4112,2.21813 0.9174,5.51575 1.1248,7.328 0.2076,1.81225 1.0356,6.03325 1.8402,9.38 0.8045,3.34663 1.4454,7.498 1.424,9.22525 -0.031,2.53063 0.2868,3.9225 1.637,7.16825 0.9215,2.21525 1.9029,4.85275 2.1808,5.861 0.2772,1.00838 2.064,7.49 3.9691,14.40375 3.3061,11.9985 3.7605,14.46913 2.7204,14.79338 -0.2545,0.08 -0.3384,0.5535 -0.1868,1.05362 0.1555,0.499 0.014,2.50075 -0.3202,4.446 -0.328,1.94525 -0.4541,3.99338 -0.2803,4.55175 0.3482,1.11725 -1.5641,4.90188 -2.6476,5.23975 -0.3755,0.11625 -1.5776,-0.16275 -2.6714,-0.62225 z"
         style="opacity:1;fill:#000000;fill-opacity:1;stroke:none;stroke-width:0.63779527;stroke-linecap:round;stroke-linejoin:round;stroke-miterlimit:3.70000005;stroke-dasharray:15.30708661, 0.63779528;stroke-dashoffset:0" />
    </g>
  </g>
</svg>
